HIERARCHY
ROOT hip
{
	OFFSET 0.000000 0.000000 0.000000
	CHANNELS 6 Xposition Yposition Zposition Xrotation Zrotation Yrotation 
	JOINT abdomen
	{
		OFFSET 0.000000 3.422050 0.000000
		CHANNELS 3 Xrotation Zrotation Yrotation 
		JOINT chest
		{
			OFFSET 0.000000 8.486693 -0.684411
			CHANNELS 3 Xrotation Zrotation Yrotation 
			JOINT neck
			{
				OFFSET 0.000000 10.266162 -0.273764
				CHANNELS 3 Xrotation Zrotation Yrotation 
				JOINT head
				{
					OFFSET 0.000000 3.148285 0.000000
					CHANNELS 3 Xrotation Zrotation Yrotation 
					End Site
					{
						OFFSET 0.000000 3.148289 0.000000
					}
				}
			}
			JOINT lCollar
			{
				OFFSET 3.422053 6.707223 -0.821293
				CHANNELS 3 Yrotation Zrotation Xrotation 
				JOINT lShldr
				{
					OFFSET 3.285171 0.000000 0.000000
					CHANNELS 3 Zrotation Yrotation Xrotation 
					JOINT lForeArm
					{
						OFFSET 10.129278 0.000000 0.000000
						CHANNELS 3 Yrotation Zrotation Xrotation 
						JOINT lHand
						{
							OFFSET 8.486692 0.000000 0.000000
							CHANNELS 3 Zrotation Yrotation Xrotation 
							End Site
							{
								OFFSET 4.106464 0.000000 0.000000
							}
						}
					}
				}
			}
			JOINT rCollar
			{
				OFFSET -3.558935 6.707223 -0.821293
				CHANNELS 3 Yrotation Zrotation Xrotation 
				JOINT rShldr
				{
					OFFSET -3.148289 0.000000 0.000000
					CHANNELS 3 Zrotation Yrotation Xrotation 
					JOINT rForeArm
					{
						OFFSET -10.266159 0.000000 0.000000
						CHANNELS 3 Yrotation Zrotation Xrotation 
						JOINT rHand
						{
							OFFSET -8.349810 0.000000 0.000000
							CHANNELS 3 Zrotation Yrotation Xrotation 
							End Site
							{
								OFFSET -4.106464 0.000000 0.000000
							}
						}
					}
				}
			}
		}
	}
	JOINT lThigh
	{
		OFFSET 5.338403 -1.642589 1.368821
		CHANNELS 3 Xrotation Zrotation Yrotation 
		JOINT lShin
		{
			OFFSET -2.053232 -20.121670 0.000000
			CHANNELS 3 Xrotation Zrotation Yrotation 
			JOINT lFoot
			{
				OFFSET 0.000000 -19.300380 -1.231939
				CHANNELS 3 Xrotation Yrotation Zrotation 
				End Site
				{
					OFFSET 0.000000 -2.463878 4.653993
				}
			}
		}
	}
	JOINT rThigh
	{
		OFFSET -5.338403 -1.642589 1.368821
		CHANNELS 3 Xrotation Zrotation Yrotation 
		JOINT rShin
		{
			OFFSET 2.053232 -20.121670 0.000000
			CHANNELS 3 Xrotation Zrotation Yrotation 
			JOINT rFoot
			{
				OFFSET 0.000000 -19.300380 -1.231939
				CHANNELS 3 Xrotation Yrotation Zrotation 
				End Site
				{
					OFFSET 0.000000 -2.463878 4.653993
				}
			}
		}
	}
}
MOTION
Frames: 19
Frame Time: 0.022176
0.000000 43.528500 0.000000 0.000000 0.000000 0.000000 0.000000 0.000000 0.000000 0.000000 0.000000 0.000000 0.000000 0.000000 0.000000 0.000000 0.000000 0.000000 0.000000 0.000000 0.000000 0.000000 0.000000 0.000000 0.000000 0.000000 0.000000 0.000000 0.000000 0.000000 0.000000 0.000000 0.000000 0.000000 0.000000 0.000000 0.000000 0.000000 0.000000 0.000000 0.000000 0.000000 0.000000 0.000000 0.000000 0.000000 0.000000 0.000000 0.000000 0.000000 0.000000 0.000000 0.000000 0.000000 0.000000 0.000000 0.000000 0.000000 0.000000 0.000000 
20.110023 6.909916 15.255981 121.011925 -0.002582 179.995438 18.161165 0.076982 -0.138208 17.009798 3.093256 -1.516519 13.993475 0.000000 0.000000 0.134637 0.000000 0.000000 1.434123 -44.299850 -2.790531 1.763246 0.907021 55.236530 -3.161426 -0.725404 36.295898 1.011318 -4.948131 11.195197 -20.361088 46.792187 11.492888 16.552996 63.373699 -26.746683 -45.412777 50.233067 86.746353 -14.898816 7.712838 -27.768387 -62.338326 33.860237 34.453033 116.184196 35.904507 12.304570 -10.437662 3.752506 20.628639 -54.388500 -27.794382 -38.168800 112.102524 -41.823166 10.252730 -10.000841 -28.367773 -16.667412 
20.110023 6.909916 15.178552 121.002296 -0.002582 179.995438 18.161165 0.076982 -0.138208 17.564650 3.093211 -1.516429 14.382343 0.000000 0.000000 0.460290 0.000000 0.000000 0.445057 -44.741493 -3.455222 2.677030 1.651849 55.251633 -3.675512 -0.763519 36.286636 1.315550 -4.958063 10.717980 -20.285849 46.730492 11.018366 16.115295 63.920906 -27.246880 -46.373917 51.040108 87.472031 -15.401001 7.787079 -27.731962 -62.732761 33.956631 34.273872 116.717728 36.051250 12.374640 -10.650138 3.563385 20.595570 -54.713318 -27.885469 -38.066936 112.102539 -41.823170 10.252728 -10.000841 -28.367773 -16.667412 
20.110023 6.909916 15.101123 121.002304 -0.002582 179.995438 18.161167 0.076982 -0.138208 18.119713 3.093164 -1.516338 14.771287 0.000000 0.000000 0.785985 0.000000 0.000000 -0.559637 -45.175201 -4.136300 3.592995 2.397614 55.278706 -4.189774 -0.801562 36.277027 1.619969 -4.965474 10.240541 -20.211407 46.668320 10.544387 15.657623 64.466621 -27.766958 -47.369854 51.840191 88.233368 -15.903387 7.861658 -27.696173 -63.128067 34.052010 34.093689 117.252640 36.197502 12.446552 -10.862700 3.374369 20.561796 -55.038631 -27.976051 -37.964386 112.102524 -41.823166 10.252730 -10.000841 -28.367773 -16.667412 
20.110023 6.909916 15.023693 121.002304 -0.002582 179.995438 18.161167 0.076982 -0.138208 18.674955 3.093116 -1.516249 15.160290 0.000000 0.000000 1.111716 0.000000 0.000000 -1.580052 -45.600639 -4.833858 4.511262 3.143965 55.317783 -4.704195 -0.839527 36.267078 1.924537 -4.970356 9.762911 -20.137810 46.605759 10.070992 15.178733 65.010643 -28.308119 -48.402382 52.632607 89.032173 -16.405956 7.936562 -27.661034 -63.524216 34.146370 33.912479 117.788948 36.343258 12.520312 -11.075355 3.185463 20.527330 -55.364433 -28.066130 -37.861160 112.102531 -41.823170 10.252731 -10.000841 -28.367773 -16.667414 
20.110023 6.909916 14.946263 121.002304 -0.002582 179.995438 18.161163 0.076982 -0.138208 19.230356 3.093067 -1.516159 15.549346 0.000000 0.000000 1.437479 0.000000 0.000000 -2.616255 -46.017490 -5.547967 5.431958 3.890552 55.368958 -5.218752 -0.877411 36.256786 2.229220 -4.972710 9.285130 -20.065023 46.542744 9.598175 14.677323 65.552849 -28.871698 -49.473389 53.416637 89.870316 -16.908695 8.011792 -27.626543 -63.921215 34.239697 33.730270 118.326622 36.488476 12.595925 -11.288098 2.996671 20.492155 -55.690720 -28.155695 -37.757256 112.102509 -41.823162 10.252731 -10.000840 -28.367771 -16.667412 
20.110023 6.909916 14.868834 121.002296 -0.002582 179.995438 18.161165 0.076982 -0.138208 19.785889 3.093018 -1.516070 15.938452 0.000000 0.000000 1.763270 0.000000 0.000000 -3.668287 -46.425407 -6.278667 6.355207 4.637022 55.432293 -5.733427 -0.915209 36.246147 2.533982 -4.972532 8.807234 -19.993076 46.479317 9.125962 14.151985 66.093086 -29.459105 -50.584866 54.191547 90.749794 -17.411581 8.087332 -27.592705 -64.319038 34.331985 33.547070 118.865662 36.633148 12.673389 -11.500937 2.807999 20.456287 -56.017483 -28.244741 -37.652687 112.102524 -41.823166 10.252730 -10.000840 -28.367771 -16.667412 
20.110023 6.909916 14.791405 121.002296 -0.002582 179.995438 18.161165 0.076982 -0.138208 20.341528 3.092968 -1.515982 16.327587 0.000000 0.000000 2.089080 0.000000 0.000000 -4.736156 -46.824070 -7.025972 7.281133 5.383014 55.507832 -6.248196 -0.952916 36.235172 2.838786 -4.969822 8.329264 -19.921972 46.415497 8.654368 13.601178 66.631149 -30.071875 -51.738850 54.956516 91.672638 -17.914600 8.163174 -27.559525 -64.717674 34.423229 33.362881 119.406052 36.777252 12.752714 -11.713872 2.619452 20.419725 -56.344719 -28.333263 -37.547440 112.102524 -41.823166 10.252730 -10.000840 -28.367773 -16.667412 
20.110023 6.909916 14.713975 121.002296 -0.002582 179.995438 18.161165 0.076982 -0.138208 20.897236 3.092916 -1.515894 16.716753 0.000000 0.000000 2.414907 0.000000 0.000000 -5.819841 -47.213150 -7.789862 8.209860 6.128171 55.595650 -6.763041 -0.990527 36.223858 3.143596 -4.964578 7.851251 -19.851696 46.351242 8.183394 13.023229 67.166824 -30.711649 -52.937450 55.710709 92.640953 -18.417734 8.239314 -27.527018 -65.117149 34.513416 33.177715 119.947754 36.920765 12.833889 -11.926904 2.431035 20.382462 -56.672428 -28.421261 -37.441540 112.102524 -41.823166 10.252730 -10.000841 -28.367773 -16.667414 
20.110023 6.909916 14.636546 121.002296 -0.002582 179.995438 18.161165 0.076982 -0.138208 21.453005 3.092864 -1.515807 17.105936 0.000000 0.000000 2.740744 0.000000 0.000000 -6.919285 -47.592323 -8.570281 9.141513 6.872130 55.695786 -7.277941 -1.028038 36.212200 3.448375 -4.956800 7.373235 -19.782267 46.286598 7.713067 12.416392 67.699966 -31.380228 -54.182850 56.453220 93.656921 -18.920952 8.315735 -27.495165 -65.517403 34.602539 32.991573 120.490784 37.063663 12.916917 -12.140038 2.242752 20.344507 -57.000618 -28.508730 -37.334972 112.102531 -41.823170 10.252728 -10.000841 -28.367773 -16.667412 
20.110023 6.909916 14.559116 121.002304 -0.002582 179.995438 18.161167 0.076982 -0.138208 22.008801 3.092811 -1.515720 17.495131 0.000000 0.000000 3.066586 0.000000 0.000000 -8.034396 -47.961266 -9.367142 10.076216 7.614531 55.808315 -7.792877 -1.065445 36.200207 3.753089 -4.946487 6.895251 -19.713697 46.221569 7.243397 11.778705 68.230309 -32.079533 -55.477234 57.183079 94.722725 -19.424253 8.392435 -27.463989 -65.918434 34.690582 32.804485 121.035118 37.205936 13.001804 -12.353271 2.054611 20.305853 -57.329247 -28.595657 -37.227749 112.102524 -41.823166 10.252731 -10.000841 -28.367773 -16.667412 
20.110023 6.909916 14.481687 121.002296 -0.002582 179.995438 18.161163 0.076982 -0.138208 22.564590 3.092757 -1.515633 17.884321 0.000000 0.000000 3.392429 0.000000 0.000000 -9.165042 -48.319641 -10.180312 11.014086 8.355007 55.933262 -8.307827 -1.102741 36.187878 4.057701 -4.933644 6.417339 -19.645977 46.156147 6.774395 11.108095 68.757637 -32.811668 -56.822922 57.899349 95.840683 -19.927614 8.469403 -27.433489 -66.320244 34.777546 32.616455 121.580742 37.347557 13.088549 -12.566608 1.866614 20.266502 -57.658333 -28.682037 -37.119858 112.102524 -41.823166 10.252730 -10.000840 -28.367773 -16.667412 
20.110023 6.909916 14.404258 121.002304 -0.002582 179.995438 18.161165 0.076982 -0.138208 23.120361 3.092703 -1.515548 18.273508 0.000000 0.000000 3.718265 0.000000 0.000000 -10.311047 -48.667122 -11.009618 11.955247 9.093196 56.070694 -8.822769 -1.139925 36.175217 4.362174 -4.918271 5.939535 -19.579111 46.090343 6.306077 10.402278 69.281601 -33.578850 -58.222065 58.600891 97.012932 -20.431011 8.546633 -27.403677 -66.722824 34.863426 32.427490 122.127640 37.488506 13.177149 -12.780046 1.678767 20.226454 -57.987885 -28.767876 -37.011322 112.102509 -41.823162 10.252731 -10.000841 -28.367773 -16.667412 
20.110023 6.909916 14.326828 121.002296 -0.002582 179.995438 18.161165 0.076982 -0.138208 23.676073 3.092647 -1.515462 18.662670 0.000000 0.000000 4.044092 0.000000 0.000000 -11.472198 -49.003399 -11.854849 12.899817 9.828735 56.220638 -9.337685 -1.176990 36.162216 4.666473 -4.900370 5.461872 -19.513105 46.024170 5.838455 9.658832 69.802078 -34.383595 -59.676994 59.286690 98.241829 -20.934433 8.624109 -27.374546 -67.126129 34.948212 32.237606 122.675812 37.628773 13.267607 -12.993595 1.491075 20.185713 -58.317879 -28.853165 -36.902138 112.102524 -41.823166 10.252730 -10.000841 -28.367773 -16.667412 
20.110023 6.909916 14.249398 121.002296 -0.002582 179.995438 18.161165 0.076982 -0.138208 24.231709 3.092591 -1.515377 19.051813 0.000000 0.000000 4.369904 0.000000 0.000000 -12.648229 -49.328156 -12.715744 13.847904 10.561256 56.383125 -9.852553 -1.213931 36.148888 4.970562 -4.879946 4.984391 -19.447962 45.957623 5.371542 8.875117 70.318626 -35.228485 -61.189861 59.955490 99.529488 -21.437857 8.701828 -27.346100 -67.530182 35.031887 32.046803 123.225220 37.768322 13.359914 -13.207250 1.303544 20.144274 -58.648300 -28.937893 -36.792316 112.102524 -41.823166 10.252731 -10.000841 -28.367773 -16.667412 
20.110023 6.909916 14.171969 121.002296 -0.002582 179.995438 18.161165 0.076982 -0.138208 24.787241 3.092534 -1.515293 19.440912 0.000000 0.000000 4.695693 0.000000 0.000000 -13.838840 -49.641087 -13.592000 14.799630 11.290404 56.558205 -10.367355 -1.250747 36.135235 5.274403 -4.857001 4.507125 -19.383688 45.890724 4.905351 8.048263 70.831047 -36.116455 -62.762737 60.606098 100.877998 -21.941261 8.779777 -27.318340 -67.934975 35.114464 31.855122 123.775887 37.907150 13.454074 -13.421017 1.116178 20.102144 -58.979183 -29.022064 -36.681850 112.102524 -41.823166 10.252731 -10.000841 -28.367775 -16.667414 
20.110023 6.909916 14.094540 121.002296 -0.002582 179.995438 18.161167 0.076982 -0.138208 25.342646 3.092476 -1.515210 19.829971 0.000000 0.000000 5.021457 0.000000 0.000000 -15.043664 -49.941883 -14.483254 15.755096 12.015811 56.745892 -10.882068 -1.287430 36.121250 5.577965 -4.831542 4.030115 -19.320284 45.823475 4.439896 7.175169 71.338844 -37.050522 -64.397728 61.237297 102.289452 -22.444635 8.857947 -27.291277 -68.340446 35.195904 31.662531 124.327751 38.045219 13.550083 -13.634892 0.928982 20.059320 -59.310482 -29.105669 -36.570747 112.102524 -41.823166 10.252730 -10.000841 -28.367773 -16.667412 
20.110023 6.909916 14.017110 121.002296 -0.002582 179.995438 18.161163 0.076982 -0.138208 25.897886 3.092418 -1.515127 20.218973 0.000000 0.000000 5.347188 0.000000 0.000000 -16.262312 -50.230267 -15.389118 16.714409 12.737115 56.946201 -11.396671 -1.323977 36.106937 5.881208 -4.803575 3.553393 -19.257746 45.755875 3.975188 6.252474 71.841652 -38.034054 -66.096458 61.847649 103.765488 -22.947962 8.936334 -27.264917 -68.746620 35.276230 31.469082 124.880806 38.182522 13.647933 -13.848887 0.741962 20.015810 -59.642216 -29.188704 -36.459011 112.102509 -41.823162 10.252729 -10.000841 -28.367773 -16.667412 
20.110023 6.909916 13.939681 121.002296 -0.002582 179.995438 18.161163 0.076982 -0.138208 26.452948 3.092358 -1.515044 20.607916 0.000000 0.000000 5.672884 0.000000 0.000000 -17.494314 -50.505939 -16.309126 17.677671 13.453963 57.159168 -11.911148 -1.360385 36.092308 6.184100 -4.773105 3.076998 -19.196096 45.687950 3.511240 5.276581 72.339066 -39.070690 -67.860657 62.435879 105.307793 -23.451216 9.014922 -27.239252 -69.153488 35.355427 31.274780 125.435043 38.319027 13.747624 -14.062992 0.555122 19.971598 -59.974361 -29.271170 -36.346657 112.102524 -41.823162 10.252728 -10.000841 -28.367773 -16.667412 
